<?xml version="1.0" standalone="no"?>
<!DOCTYPE svg PUBLIC "-//W3C//DTD SVG 20010904//EN"
 "http://www.w3.org/TR/2001/REC-SVG-20010904/DTD/svg10.dtd">
<svg version="1.0" xmlns="http://www.w3.org/2000/svg"
 width="260.000000pt" height="260.000000pt" viewBox="0 0 260.000000 260.000000"
 preserveAspectRatio="xMidYMid meet">
<metadata>
Created by potrace 1.14, written by Peter Selinger 2001-2017
</metadata>
<g transform="translate(0.000000,260.000000) scale(0.100000,-0.100000)"
fill="#000000" stroke="none">
<path d="M1155 2593 c-563 -73 -1010 -485 -1131 -1043 -26 -119 -26 -381 0
-500 113 -520 506 -913 1026 -1026 119 -26 381 -26 500 0 513 111 904 497
1021 1006 28 122 35 339 15 460 -69 424 -314 770 -676 959 -195 101 -404 152
-613 150 -62 -1 -125 -4 -142 -6z m264 -73 c300 -31 560 -157 773 -374 277
-282 401 -668 342 -1064 -78 -531 -485 -946 -1018 -1038 -250 -44 -538 -3
-761 108 -568 284 -838 923 -640 1515 42 127 81 203 159 318 181 265 484 462
799 519 140 26 214 29 346 16z"/>
<path d="M1401 1525 c-145 -184 -266 -337 -270 -339 -3 -2 -64 43 -135 100
-71 57 -132 104 -136 104 -6 0 -113 -114 -203 -216 -18 -22 -18 -22 238 -254
214 -194 259 -230 270 -219 7 8 138 167 291 354 153 187 322 394 376 459 54
65 97 124 95 130 -4 11 -247 215 -258 216 -3 0 -123 -151 -268 -335z m412 182
c37 -33 67 -63 67 -67 0 -4 -80 -107 -177 -228 -98 -120 -256 -317 -352 -435
l-174 -217 -81 73 c-169 150 -351 311 -355 314 -5 3 36 56 96 122 l48 54 130
-107 c72 -58 133 -106 136 -106 4 0 132 153 285 339 233 283 281 338 294 328
8 -6 45 -38 83 -70z"/>
</g>
</svg>
