<?xml version="1.0" standalone="no"?>
<!DOCTYPE svg PUBLIC "-//W3C//DTD SVG 20010904//EN"
 "http://www.w3.org/TR/2001/REC-SVG-20010904/DTD/svg10.dtd">
<svg version="1.0" xmlns="http://www.w3.org/2000/svg"
 width="70.000000pt" height="70.000000pt" viewBox="0 0 70.000000 70.000000"
 preserveAspectRatio="xMidYMid meet">
<metadata>
Created by potrace 1.14, written by Peter Selinger 2001-2017
</metadata>
<g transform="translate(0.000000,70.000000) scale(0.100000,-0.100000)"
fill="#000000" stroke="none">
<path d="M335 676 c-57 -25 -77 -75 -50 -128 27 -55 22 -59 -51 -53 -36 4 -74
8 -84 10 -30 6 -48 -20 -55 -77 -17 -154 -7 -173 67 -128 46 28 82 26 107 -6
55 -71 -28 -141 -108 -91 -20 12 -41 22 -48 23 -31 5 -36 -51 -13 -136 8 -30
16 -40 38 -44 15 -3 127 -5 250 -4 160 1 227 4 239 13 15 12 18 36 18 206 1
107 -1 202 -3 211 -4 15 -36 34 -52 31 -3 0 -38 -4 -77 -7 -79 -7 -85 -3 -58
44 29 51 12 110 -40 135 -39 18 -41 18 -80 1z"/>
</g>
</svg>
